Coordinates
version=1
nRows=60
nColumns=12
inDegrees=yes

Units are S.I. units (second, meters, Newtons, ...)
Angles are in degrees

endheader
time	SC_y	SC_z	SC_x	AC_y	AC_z	AC_x	GH_y	GH_z	GH_yy	EL_x	PS_y
       0.0              -13.79          25.63          66.81           33.3         -15.32          12.48         -153.3          64.47         -68.29          33.23          130.7
  0.006539               -13.8          25.63           66.8          33.31         -15.32          12.48         -153.2          64.47         -68.27          33.23          130.7
   0.01308               -13.8          25.63           66.8          33.31         -15.32          12.48         -153.2          64.47         -68.24          33.22          130.7
   0.01962              -13.81          25.62          66.79          33.32         -15.32          12.48         -153.2          64.47         -68.21          33.22          130.7
   0.02615              -13.81          25.62          66.79          33.32         -15.32          12.47         -153.1          64.47         -68.18          33.22          130.7
   0.03269              -13.82          25.62          66.78          33.33         -15.32          12.47         -153.0          64.47         -68.14          33.22          130.6
   0.03923              -13.82          25.62          66.78          33.33         -15.32          12.47         -153.0          64.48          -68.1          33.21          130.6
   0.04577              -13.83          25.61          66.77          33.34         -15.32          12.47         -152.9          64.48         -68.07          33.21          130.6
   0.05231              -13.84          25.61          66.76          33.35         -15.32          12.47         -152.9          64.48         -68.02           33.2          130.6
   0.05885              -13.85          25.61          66.76          33.35         -15.32          12.46         -152.8          64.48         -67.98           33.2          130.6
   0.06539              -13.85           25.6          66.75          33.36         -15.32          12.46         -152.7          64.48         -67.93          33.19          130.6
   0.07192              -13.86           25.6          66.74          33.37         -15.32          12.46         -152.6          64.49         -67.88          33.19          130.6
   0.07846              -13.87           25.6          66.73          33.38         -15.32          12.45         -152.5          64.49         -67.82          33.18          130.6
     0.085              -13.88          25.59          66.72          33.39         -15.32          12.45         -152.4          64.49         -67.76          33.18          130.5
   0.09154              -13.89          25.59          66.71           33.4         -15.32          12.45         -152.3          64.49          -67.7          33.17          130.5
   0.09808               -13.9          25.58           66.7          33.41         -15.32          12.44         -152.2           64.5         -67.63          33.16          130.5
    0.1046              -13.92          25.58          66.69          33.42         -15.32          12.44         -152.1           64.5         -67.55          33.15          130.5
    0.1112              -13.93          25.57          66.67          33.43         -15.32          12.43         -152.0          64.51         -67.46          33.15          130.4
    0.1177              -13.95          25.56          66.66          33.45         -15.32          12.43         -151.8          64.51         -67.37          33.14          130.4
    0.1242              -13.96          25.56          66.64          33.46         -15.32          12.42         -151.6          64.51         -67.27          33.13          130.4
    0.1308              -13.98          25.55          66.62          33.48         -15.32          12.42         -151.5          64.52         -67.16          33.12          130.3
    0.1373               -14.0          25.54           66.6           33.5         -15.32          12.41         -151.3          64.53         -67.04           33.1          130.3
    0.1438              -14.02          25.53          66.58          33.52         -15.32           12.4         -151.1          64.53         -66.91          33.09          130.3
    0.1504              -14.05          25.52          66.55          33.55         -15.31          12.39         -150.8          64.54         -66.76          33.07          130.2
    0.1569              -14.07          25.51          66.53          33.57         -15.31          12.39         -150.6          64.55         -66.59          33.06          130.2
    0.1635               -14.1          25.49           66.5           33.6         -15.31          12.38         -150.3          64.55         -66.41          33.04          130.1
      0.17              -14.14          25.48          66.46          33.63         -15.31          12.36         -149.9          64.56          -66.2          33.02          130.0
    0.1765              -14.18          25.46          66.42          33.67         -15.31          12.35         -149.6          64.57         -65.97          32.99          130.0
    0.1831              -14.22          25.44          66.38          33.71         -15.31          12.34         -149.1          64.59         -65.71          32.97          129.9
    0.1896              -14.27          25.42          66.33          33.76         -15.31          12.32         -148.6           64.6         -65.41          32.94          129.8
    0.1962              -14.33           25.4          66.27          33.81         -15.31           12.3         -148.1          64.62         -65.07           32.9          129.7
    0.2027              -14.39          25.37          66.21          33.87          -15.3          12.28         -147.5          64.63         -64.68          32.86          129.6
    0.2092              -14.46          25.34          66.13          33.95          -15.3          12.25         -146.7          64.66         -64.23          32.82          129.4
    0.2158              -14.55           25.3          66.05          34.03          -15.3          12.22         -145.9          64.68         -63.71          32.76          129.3
    0.2223              -14.65          25.26          65.95          34.12          -15.3          12.19         -144.9          64.71         -63.09           32.7          129.1
    0.2289              -14.77           25.2          65.83          34.24         -15.29          12.15         -143.8          64.74         -62.37          32.63          128.9
    0.2354              -14.91          25.14          65.68          34.37         -15.29           12.1         -142.4          64.78         -61.51          32.54          128.6
    0.2419              -15.08          25.07          65.51          34.54         -15.28          12.04         -140.7          64.83         -60.49          32.44          128.3
    0.2485              -15.29          24.98          65.31          34.73         -15.28          11.98         -138.7          64.89         -59.24          32.31          127.9
     0.255              -15.54          24.87          65.05          34.97         -15.27          11.89         -136.3          64.96         -57.72          32.15          127.4
    0.2615              -15.85          24.73          64.74          35.27         -15.26          11.79         -133.2          65.04         -55.85          31.96          126.8
    0.2681              -16.24          24.57          64.36          35.64         -15.25          11.66         -129.5          65.15         -53.51          31.72          126.1
    0.2746              -16.72          24.35          63.87           36.1         -15.23          11.49         -124.7          65.29         -50.56          31.42          125.2
    0.2812              -17.34          24.08          63.24           36.7         -15.21          11.28         -118.7          65.46         -46.82          31.04          124.0
    0.2877              -18.13          23.74          62.45          37.45         -15.19          11.01         -111.0          65.69         -42.02          30.55          122.5
    0.2942              -19.15           23.3          61.43          38.42         -15.16          10.67         -101.0          65.97         -35.87          29.93          120.6
    0.3008              -20.45          22.73          60.12          39.66         -15.12          10.23         -88.39          66.34         -28.01          29.13          118.2
    0.3073              -22.08          22.02          58.48          41.23         -15.07          9.681         -72.46           66.8         -18.13          28.12          115.1
    0.3139              -24.07          21.15          56.48          43.13         -15.01          9.009         -53.06          67.36         -6.087          26.89          111.3
    0.3204              -26.37          20.15          54.17          45.33         -14.94           8.23         -30.57           68.0          7.871          25.47          107.0
    0.3269              -28.87          19.06          51.66          47.72         -14.86          7.387         -6.219           68.7          22.98          23.93          102.3
    0.3335              -31.36          17.98          49.15           50.1         -14.78          6.543          18.13          69.41           38.1          22.39          97.59
      0.34              -33.67          16.97          46.83          52.31         -14.71          5.764          40.62          70.05          52.06          20.97          93.24
    0.3465              -35.66          16.11          44.84          54.21         -14.65          5.092          60.03          70.61           64.1          19.74           89.5
    0.3531              -37.29          15.39           43.2          55.77          -14.6          4.541          75.95          71.07          73.98          18.74          86.42
    0.3596              -38.59          14.83          41.89          57.01         -14.56          4.102          88.61          71.44          81.84          17.94          83.98
    0.3662               -39.6          14.39          40.87          57.98         -14.53          3.759          98.52          71.72          87.99          17.31          82.06
    0.3727               -40.4          14.04          40.07          58.74         -14.51          3.492          106.2          71.95          92.78          16.82          80.57
    0.3792              -41.01          13.77          39.45          59.33         -14.49          3.283          112.3          72.12          96.53          16.44           79.4
    0.3858               -41.5          13.56          38.96           59.8         -14.47          3.118          117.0          72.26          99.48          16.14          78.49
